<mxfile host="Electron" modified="2023-10-16T05:46:51.739Z" agent="Mozilla/5.0 (Macintosh; Intel Mac OS X 10_15_7) AppleWebKit/537.36 (KHTML, like Gecko) draw.io/21.5.1 Chrome/112.0.5615.204 Electron/24.6.0 Safari/537.36" etag="3hL1fsDmUzk4NcYGMMZp" version="21.5.1" type="device">
  <diagram id="NBmDkxJyAAs_LilBsiCP" name="第 1 页">
    <mxGraphModel dx="984" dy="659" grid="1" gridSize="10" guides="1" tooltips="1" connect="1" arrows="1" fold="1" page="1" pageScale="1" pageWidth="3300" pageHeight="4681" background="none" math="0" shadow="0">
      <root>
        <mxCell id="0" />
        <mxCell id="1" parent="0" />
        <mxCell id="uo6tsb4ugXP8feVyPDLe-11" style="edgeStyle=orthogonalEdgeStyle;rounded=1;orthogonalLoop=1;jettySize=auto;html=1;exitX=0;exitY=0.5;exitDx=0;exitDy=0;entryX=1;entryY=0.5;entryDx=0;entryDy=0;endArrow=none;endFill=0;labelBackgroundColor=#F4F1DE;strokeColor=#E07A5F;fontColor=#393C56;fontSize=10;" parent="1" source="uo6tsb4ugXP8feVyPDLe-1" target="uo6tsb4ugXP8feVyPDLe-3" edge="1">
          <mxGeometry relative="1" as="geometry" />
        </mxCell>
        <mxCell id="uo6tsb4ugXP8feVyPDLe-12" style="edgeStyle=orthogonalEdgeStyle;rounded=1;orthogonalLoop=1;jettySize=auto;html=1;exitX=0;exitY=0.5;exitDx=0;exitDy=0;entryX=1;entryY=0.5;entryDx=0;entryDy=0;endArrow=none;endFill=0;labelBackgroundColor=#F4F1DE;strokeColor=#E07A5F;fontColor=#393C56;fontSize=10;" parent="1" source="uo6tsb4ugXP8feVyPDLe-1" target="uo6tsb4ugXP8feVyPDLe-4" edge="1">
          <mxGeometry relative="1" as="geometry" />
        </mxCell>
        <mxCell id="uo6tsb4ugXP8feVyPDLe-13" style="edgeStyle=orthogonalEdgeStyle;rounded=1;orthogonalLoop=1;jettySize=auto;html=1;exitX=0;exitY=0.5;exitDx=0;exitDy=0;entryX=1;entryY=0.5;entryDx=0;entryDy=0;endArrow=none;endFill=0;labelBackgroundColor=#F4F1DE;strokeColor=#E07A5F;fontColor=#393C56;fontSize=10;" parent="1" source="uo6tsb4ugXP8feVyPDLe-1" target="uo6tsb4ugXP8feVyPDLe-5" edge="1">
          <mxGeometry relative="1" as="geometry" />
        </mxCell>
        <mxCell id="uo6tsb4ugXP8feVyPDLe-14" style="edgeStyle=orthogonalEdgeStyle;rounded=1;orthogonalLoop=1;jettySize=auto;html=1;exitX=0;exitY=0.5;exitDx=0;exitDy=0;entryX=1;entryY=0.5;entryDx=0;entryDy=0;endArrow=none;endFill=0;labelBackgroundColor=#F4F1DE;strokeColor=#E07A5F;fontColor=#393C56;fontSize=10;" parent="1" source="uo6tsb4ugXP8feVyPDLe-1" target="uo6tsb4ugXP8feVyPDLe-6" edge="1">
          <mxGeometry relative="1" as="geometry" />
        </mxCell>
        <mxCell id="uo6tsb4ugXP8feVyPDLe-15" style="edgeStyle=orthogonalEdgeStyle;rounded=1;orthogonalLoop=1;jettySize=auto;html=1;exitX=1;exitY=0.5;exitDx=0;exitDy=0;entryX=0;entryY=0.5;entryDx=0;entryDy=0;endArrow=none;endFill=0;labelBackgroundColor=#F4F1DE;strokeColor=#E07A5F;fontColor=#393C56;fontSize=10;" parent="1" source="uo6tsb4ugXP8feVyPDLe-1" target="uo6tsb4ugXP8feVyPDLe-7" edge="1">
          <mxGeometry relative="1" as="geometry" />
        </mxCell>
        <mxCell id="uo6tsb4ugXP8feVyPDLe-16" style="edgeStyle=orthogonalEdgeStyle;rounded=1;orthogonalLoop=1;jettySize=auto;html=1;exitX=1;exitY=0.5;exitDx=0;exitDy=0;entryX=0;entryY=0.5;entryDx=0;entryDy=0;endArrow=none;endFill=0;labelBackgroundColor=#F4F1DE;strokeColor=#E07A5F;fontColor=#393C56;fontSize=10;" parent="1" source="uo6tsb4ugXP8feVyPDLe-1" target="uo6tsb4ugXP8feVyPDLe-8" edge="1">
          <mxGeometry relative="1" as="geometry" />
        </mxCell>
        <mxCell id="uo6tsb4ugXP8feVyPDLe-17" style="edgeStyle=orthogonalEdgeStyle;rounded=1;orthogonalLoop=1;jettySize=auto;html=1;exitX=1;exitY=0.5;exitDx=0;exitDy=0;entryX=0;entryY=0.5;entryDx=0;entryDy=0;endArrow=none;endFill=0;labelBackgroundColor=#F4F1DE;strokeColor=#E07A5F;fontColor=#393C56;fontSize=10;" parent="1" source="uo6tsb4ugXP8feVyPDLe-1" target="uo6tsb4ugXP8feVyPDLe-9" edge="1">
          <mxGeometry relative="1" as="geometry" />
        </mxCell>
        <mxCell id="uo6tsb4ugXP8feVyPDLe-18" style="edgeStyle=orthogonalEdgeStyle;rounded=1;orthogonalLoop=1;jettySize=auto;html=1;exitX=1;exitY=0.5;exitDx=0;exitDy=0;entryX=0;entryY=0.5;entryDx=0;entryDy=0;endArrow=none;endFill=0;labelBackgroundColor=#F4F1DE;strokeColor=#E07A5F;fontColor=#393C56;fontSize=10;" parent="1" source="uo6tsb4ugXP8feVyPDLe-1" target="uo6tsb4ugXP8feVyPDLe-10" edge="1">
          <mxGeometry relative="1" as="geometry" />
        </mxCell>
        <mxCell id="uo6tsb4ugXP8feVyPDLe-1" value="Unsafe" style="rounded=1;whiteSpace=wrap;html=1;fillColor=#F2CC8F;strokeColor=#E07A5F;fontColor=#393C56;fontSize=10;" parent="1" vertex="1">
          <mxGeometry x="430" y="320" width="50" height="20" as="geometry" />
        </mxCell>
        <mxCell id="uo6tsb4ugXP8feVyPDLe-20" style="edgeStyle=orthogonalEdgeStyle;curved=0;rounded=1;sketch=0;orthogonalLoop=1;jettySize=auto;html=1;exitX=0;exitY=0.5;exitDx=0;exitDy=0;endArrow=none;endFill=0;labelBackgroundColor=#F4F1DE;strokeColor=#E07A5F;fontColor=#393C56;fontSize=10;" parent="1" source="uo6tsb4ugXP8feVyPDLe-3" edge="1">
          <mxGeometry relative="1" as="geometry">
            <mxPoint x="170" y="250" as="targetPoint" />
            <Array as="points">
              <mxPoint x="290" y="270" />
              <mxPoint x="290" y="250" />
            </Array>
          </mxGeometry>
        </mxCell>
        <mxCell id="uo6tsb4ugXP8feVyPDLe-26" style="edgeStyle=orthogonalEdgeStyle;curved=0;rounded=1;sketch=0;orthogonalLoop=1;jettySize=auto;html=1;exitX=0;exitY=0.5;exitDx=0;exitDy=0;endArrow=none;endFill=0;labelBackgroundColor=#F4F1DE;strokeColor=#E07A5F;fontColor=#393C56;fontSize=10;" parent="1" source="uo6tsb4ugXP8feVyPDLe-3" edge="1">
          <mxGeometry relative="1" as="geometry">
            <mxPoint x="160" y="220" as="targetPoint" />
            <Array as="points">
              <mxPoint x="290" y="270" />
              <mxPoint x="290" y="220" />
            </Array>
          </mxGeometry>
        </mxCell>
        <mxCell id="uo6tsb4ugXP8feVyPDLe-3" value="数组相关" style="rounded=1;whiteSpace=wrap;html=1;fillColor=#F2CC8F;strokeColor=#E07A5F;fontColor=#393C56;fontSize=10;" parent="1" vertex="1">
          <mxGeometry x="320" y="260" width="60" height="20" as="geometry" />
        </mxCell>
        <mxCell id="uo6tsb4ugXP8feVyPDLe-28" style="edgeStyle=orthogonalEdgeStyle;curved=0;rounded=1;sketch=0;orthogonalLoop=1;jettySize=auto;html=1;exitX=0;exitY=0.5;exitDx=0;exitDy=0;endArrow=none;endFill=0;labelBackgroundColor=#F4F1DE;strokeColor=#E07A5F;fontColor=#393C56;fontSize=10;" parent="1" source="uo6tsb4ugXP8feVyPDLe-4" edge="1">
          <mxGeometry relative="1" as="geometry">
            <mxPoint x="170" y="300" as="targetPoint" />
            <Array as="points">
              <mxPoint x="290" y="310" />
              <mxPoint x="290" y="300" />
            </Array>
          </mxGeometry>
        </mxCell>
        <mxCell id="uo6tsb4ugXP8feVyPDLe-4" value="内存屏障" style="rounded=1;whiteSpace=wrap;html=1;fillColor=#F2CC8F;strokeColor=#E07A5F;fontColor=#393C56;fontSize=10;" parent="1" vertex="1">
          <mxGeometry x="320" y="300" width="60" height="20" as="geometry" />
        </mxCell>
        <mxCell id="uo6tsb4ugXP8feVyPDLe-29" style="edgeStyle=orthogonalEdgeStyle;curved=0;rounded=1;sketch=0;orthogonalLoop=1;jettySize=auto;html=1;exitX=0;exitY=0.5;exitDx=0;exitDy=0;endArrow=none;endFill=0;labelBackgroundColor=#F4F1DE;strokeColor=#E07A5F;fontColor=#393C56;fontSize=10;" parent="1" source="uo6tsb4ugXP8feVyPDLe-5" edge="1">
          <mxGeometry relative="1" as="geometry">
            <mxPoint x="190" y="340" as="targetPoint" />
            <Array as="points">
              <mxPoint x="290" y="350" />
              <mxPoint x="290" y="340" />
            </Array>
          </mxGeometry>
        </mxCell>
        <mxCell id="uo6tsb4ugXP8feVyPDLe-31" style="edgeStyle=orthogonalEdgeStyle;curved=0;rounded=1;sketch=0;orthogonalLoop=1;jettySize=auto;html=1;exitX=0;exitY=0.5;exitDx=0;exitDy=0;endArrow=none;endFill=0;labelBackgroundColor=#F4F1DE;strokeColor=#E07A5F;fontColor=#393C56;fontSize=10;" parent="1" source="uo6tsb4ugXP8feVyPDLe-5" edge="1">
          <mxGeometry relative="1" as="geometry">
            <mxPoint x="200" y="371" as="targetPoint" />
            <Array as="points">
              <mxPoint x="290" y="350" />
              <mxPoint x="290" y="371" />
            </Array>
          </mxGeometry>
        </mxCell>
        <mxCell id="uo6tsb4ugXP8feVyPDLe-5" value="系统相关" style="rounded=1;whiteSpace=wrap;html=1;fillColor=#F2CC8F;strokeColor=#E07A5F;fontColor=#393C56;fontSize=10;" parent="1" vertex="1">
          <mxGeometry x="320" y="340" width="60" height="20" as="geometry" />
        </mxCell>
        <mxCell id="uo6tsb4ugXP8feVyPDLe-34" style="edgeStyle=orthogonalEdgeStyle;curved=0;rounded=1;sketch=0;orthogonalLoop=1;jettySize=auto;html=1;exitX=0;exitY=0.5;exitDx=0;exitDy=0;endArrow=none;endFill=0;labelBackgroundColor=#F4F1DE;strokeColor=#E07A5F;fontColor=#393C56;fontSize=10;" parent="1" source="uo6tsb4ugXP8feVyPDLe-6" edge="1">
          <mxGeometry relative="1" as="geometry">
            <mxPoint x="200" y="400" as="targetPoint" />
            <Array as="points">
              <mxPoint x="290" y="390" />
              <mxPoint x="290" y="400" />
            </Array>
          </mxGeometry>
        </mxCell>
        <mxCell id="uo6tsb4ugXP8feVyPDLe-36" style="edgeStyle=orthogonalEdgeStyle;curved=0;rounded=1;sketch=0;orthogonalLoop=1;jettySize=auto;html=1;exitX=0;exitY=0.5;exitDx=0;exitDy=0;endArrow=none;endFill=0;labelBackgroundColor=#F4F1DE;strokeColor=#E07A5F;fontColor=#393C56;fontSize=10;" parent="1" source="uo6tsb4ugXP8feVyPDLe-6" edge="1">
          <mxGeometry relative="1" as="geometry">
            <mxPoint x="210" y="430" as="targetPoint" />
            <Array as="points">
              <mxPoint x="290" y="390" />
              <mxPoint x="290" y="430" />
            </Array>
          </mxGeometry>
        </mxCell>
        <mxCell id="uo6tsb4ugXP8feVyPDLe-6" value="线程调度" style="rounded=1;whiteSpace=wrap;html=1;fillColor=#F2CC8F;strokeColor=#E07A5F;fontColor=#393C56;fontSize=10;" parent="1" vertex="1">
          <mxGeometry x="320" y="380" width="60" height="20" as="geometry" />
        </mxCell>
        <mxCell id="uo6tsb4ugXP8feVyPDLe-38" style="edgeStyle=orthogonalEdgeStyle;curved=0;rounded=1;sketch=0;orthogonalLoop=1;jettySize=auto;html=1;exitX=1;exitY=0.5;exitDx=0;exitDy=0;endArrow=none;endFill=0;labelBackgroundColor=#F4F1DE;strokeColor=#E07A5F;fontColor=#393C56;fontSize=10;" parent="1" source="uo6tsb4ugXP8feVyPDLe-7" edge="1">
          <mxGeometry relative="1" as="geometry">
            <mxPoint x="790" y="220" as="targetPoint" />
            <Array as="points">
              <mxPoint x="615" y="270" />
              <mxPoint x="615" y="220" />
              <mxPoint x="640" y="220" />
            </Array>
          </mxGeometry>
        </mxCell>
        <mxCell id="uo6tsb4ugXP8feVyPDLe-7" value="内存操作" style="rounded=1;whiteSpace=wrap;html=1;fillColor=#F2CC8F;strokeColor=#E07A5F;fontColor=#393C56;fontSize=10;" parent="1" vertex="1">
          <mxGeometry x="530" y="260" width="60" height="20" as="geometry" />
        </mxCell>
        <mxCell id="uo6tsb4ugXP8feVyPDLe-8" value="CAS" style="rounded=1;whiteSpace=wrap;html=1;fillColor=#F2CC8F;strokeColor=#E07A5F;fontColor=#393C56;fontSize=10;" parent="1" vertex="1">
          <mxGeometry x="530" y="300" width="60" height="20" as="geometry" />
        </mxCell>
        <mxCell id="uo6tsb4ugXP8feVyPDLe-44" style="edgeStyle=orthogonalEdgeStyle;curved=0;rounded=1;sketch=0;orthogonalLoop=1;jettySize=auto;html=1;exitX=1;exitY=0.5;exitDx=0;exitDy=0;endArrow=none;endFill=0;labelBackgroundColor=#F4F1DE;strokeColor=#E07A5F;fontColor=#393C56;fontSize=10;" parent="1" source="uo6tsb4ugXP8feVyPDLe-9" edge="1">
          <mxGeometry relative="1" as="geometry">
            <mxPoint x="760" y="320" as="targetPoint" />
            <Array as="points">
              <mxPoint x="610" y="350" />
              <mxPoint x="610" y="320" />
              <mxPoint x="760" y="320" />
            </Array>
          </mxGeometry>
        </mxCell>
        <mxCell id="uo6tsb4ugXP8feVyPDLe-45" style="edgeStyle=orthogonalEdgeStyle;curved=0;rounded=1;sketch=0;orthogonalLoop=1;jettySize=auto;html=1;exitX=1;exitY=0.5;exitDx=0;exitDy=0;endArrow=none;endFill=0;labelBackgroundColor=#F4F1DE;strokeColor=#E07A5F;fontColor=#393C56;fontSize=10;entryX=1.023;entryY=0.767;entryDx=0;entryDy=0;entryPerimeter=0;" parent="1" source="uo6tsb4ugXP8feVyPDLe-9" edge="1" target="uo6tsb4ugXP8feVyPDLe-48">
          <mxGeometry relative="1" as="geometry">
            <mxPoint x="780" y="350" as="targetPoint" />
          </mxGeometry>
        </mxCell>
        <mxCell id="uo6tsb4ugXP8feVyPDLe-46" style="edgeStyle=orthogonalEdgeStyle;curved=0;rounded=1;sketch=0;orthogonalLoop=1;jettySize=auto;html=1;exitX=1;exitY=0.5;exitDx=0;exitDy=0;endArrow=none;endFill=0;labelBackgroundColor=#F4F1DE;strokeColor=#E07A5F;fontColor=#393C56;fontSize=10;entryX=1.036;entryY=0.833;entryDx=0;entryDy=0;entryPerimeter=0;" parent="1" source="uo6tsb4ugXP8feVyPDLe-9" edge="1" target="uo6tsb4ugXP8feVyPDLe-49">
          <mxGeometry relative="1" as="geometry">
            <mxPoint x="760" y="380" as="targetPoint" />
            <Array as="points">
              <mxPoint x="610" y="350" />
              <mxPoint x="610" y="380" />
            </Array>
          </mxGeometry>
        </mxCell>
        <mxCell id="uo6tsb4ugXP8feVyPDLe-9" value="Class相关" style="rounded=1;whiteSpace=wrap;html=1;fillColor=#F2CC8F;strokeColor=#E07A5F;fontColor=#393C56;fontSize=10;" parent="1" vertex="1">
          <mxGeometry x="530" y="340" width="60" height="20" as="geometry" />
        </mxCell>
        <mxCell id="uo6tsb4ugXP8feVyPDLe-50" style="edgeStyle=orthogonalEdgeStyle;curved=0;rounded=1;sketch=0;orthogonalLoop=1;jettySize=auto;html=1;exitX=1;exitY=0.5;exitDx=0;exitDy=0;endArrow=none;endFill=0;labelBackgroundColor=#F4F1DE;strokeColor=#E07A5F;fontColor=#393C56;fontSize=10;entryX=1;entryY=0.833;entryDx=0;entryDy=0;entryPerimeter=0;" parent="1" source="uo6tsb4ugXP8feVyPDLe-10" edge="1" target="uo6tsb4ugXP8feVyPDLe-54">
          <mxGeometry relative="1" as="geometry">
            <mxPoint x="740" y="410" as="targetPoint" />
            <Array as="points">
              <mxPoint x="610" y="390" />
              <mxPoint x="610" y="410" />
            </Array>
          </mxGeometry>
        </mxCell>
        <mxCell id="uo6tsb4ugXP8feVyPDLe-10" value="对象操作" style="rounded=1;whiteSpace=wrap;html=1;fillColor=#F2CC8F;strokeColor=#E07A5F;fontColor=#393C56;fontSize=10;" parent="1" vertex="1">
          <mxGeometry x="530" y="380" width="60" height="20" as="geometry" />
        </mxCell>
        <mxCell id="uo6tsb4ugXP8feVyPDLe-39" value="分配、拷贝、扩充、释放堆外内存" style="text;html=1;resizable=0;autosize=1;align=center;verticalAlign=middle;points=[];fillColor=none;strokeColor=none;rounded=0;sketch=0;fontColor=#393C56;fontSize=10;" parent="1" vertex="1">
          <mxGeometry x="615" y="195" width="170" height="30" as="geometry" />
        </mxCell>
        <mxCell id="uo6tsb4ugXP8feVyPDLe-41" style="edgeStyle=orthogonalEdgeStyle;curved=0;rounded=1;sketch=0;orthogonalLoop=1;jettySize=auto;html=1;exitX=1;exitY=0.5;exitDx=0;exitDy=0;endArrow=none;endFill=0;labelBackgroundColor=#F4F1DE;strokeColor=#E07A5F;fontColor=#393C56;fontSize=10;" parent="1" edge="1">
          <mxGeometry relative="1" as="geometry">
            <mxPoint x="760" y="250" as="targetPoint" />
            <mxPoint x="590" y="270" as="sourcePoint" />
            <Array as="points">
              <mxPoint x="615" y="270" />
              <mxPoint x="615" y="250" />
            </Array>
          </mxGeometry>
        </mxCell>
        <mxCell id="uo6tsb4ugXP8feVyPDLe-42" value="设置、获得给定地址中的值" style="text;html=1;resizable=0;autosize=1;align=center;verticalAlign=middle;points=[];fillColor=none;strokeColor=none;rounded=0;sketch=0;fontColor=#393C56;fontSize=10;" parent="1" vertex="1">
          <mxGeometry x="615" y="225" width="140" height="30" as="geometry" />
        </mxCell>
        <mxCell id="uo6tsb4ugXP8feVyPDLe-47" value="创建类（普通类&amp;amp;匿名类）" style="text;html=1;resizable=0;autosize=1;align=center;verticalAlign=middle;points=[];fillColor=none;strokeColor=none;rounded=0;sketch=0;fontColor=#393C56;fontSize=10;" parent="1" vertex="1">
          <mxGeometry x="615" y="295" width="140" height="30" as="geometry" />
        </mxCell>
        <mxCell id="uo6tsb4ugXP8feVyPDLe-48" value="获取field的内存偏移地址" style="text;html=1;resizable=0;autosize=1;align=center;verticalAlign=middle;points=[];fillColor=none;strokeColor=none;rounded=0;sketch=0;fontColor=#393C56;fontSize=10;" parent="1" vertex="1">
          <mxGeometry x="615" y="325" width="130" height="30" as="geometry" />
        </mxCell>
        <mxCell id="uo6tsb4ugXP8feVyPDLe-49" value="检测、确保类初始化" style="text;html=1;resizable=0;autosize=1;align=center;verticalAlign=middle;points=[];fillColor=none;strokeColor=none;rounded=0;sketch=0;fontColor=#393C56;fontSize=10;" parent="1" vertex="1">
          <mxGeometry x="615" y="355" width="110" height="30" as="geometry" />
        </mxCell>
        <mxCell id="uo6tsb4ugXP8feVyPDLe-51" style="edgeStyle=orthogonalEdgeStyle;curved=0;rounded=1;sketch=0;orthogonalLoop=1;jettySize=auto;html=1;exitX=1;exitY=0.5;exitDx=0;exitDy=0;endArrow=none;endFill=0;labelBackgroundColor=#F4F1DE;strokeColor=#E07A5F;fontColor=#393C56;fontSize=10;" parent="1" edge="1">
          <mxGeometry relative="1" as="geometry">
            <mxPoint x="800" y="440" as="targetPoint" />
            <mxPoint x="590" y="390" as="sourcePoint" />
            <Array as="points">
              <mxPoint x="610" y="390" />
              <mxPoint x="610" y="440" />
              <mxPoint x="780" y="440" />
            </Array>
          </mxGeometry>
        </mxCell>
        <mxCell id="uo6tsb4ugXP8feVyPDLe-52" style="edgeStyle=orthogonalEdgeStyle;curved=0;rounded=1;sketch=0;orthogonalLoop=1;jettySize=auto;html=1;exitX=1;exitY=0.5;exitDx=0;exitDy=0;endArrow=none;endFill=0;labelBackgroundColor=#F4F1DE;strokeColor=#E07A5F;fontColor=#393C56;fontSize=10;" parent="1" edge="1">
          <mxGeometry relative="1" as="geometry">
            <mxPoint x="910" y="471" as="targetPoint" />
            <mxPoint x="590" y="390" as="sourcePoint" />
            <Array as="points">
              <mxPoint x="610" y="390" />
              <mxPoint x="610" y="471" />
            </Array>
          </mxGeometry>
        </mxCell>
        <mxCell id="uo6tsb4ugXP8feVyPDLe-53" value="获取对象成员属性的内存偏移量" style="text;html=1;resizable=0;autosize=1;align=center;verticalAlign=middle;points=[];fillColor=none;strokeColor=none;rounded=0;sketch=0;fontColor=#393C56;fontSize=10;" parent="1" vertex="1">
          <mxGeometry x="615" y="415" width="160" height="30" as="geometry" />
        </mxCell>
        <mxCell id="uo6tsb4ugXP8feVyPDLe-54" value="非常规对象实例化" style="text;html=1;resizable=0;autosize=1;align=center;verticalAlign=middle;points=[];fillColor=none;strokeColor=none;rounded=0;sketch=0;fontColor=#393C56;fontSize=10;" parent="1" vertex="1">
          <mxGeometry x="615" y="385" width="100" height="30" as="geometry" />
        </mxCell>
        <mxCell id="fEuwy3rYI2_3SgZEsgPA-3" value="存储、获取指定偏移地址的变量值（包括延迟生效、volatile语义）" style="text;html=1;resizable=0;autosize=1;align=center;verticalAlign=middle;points=[];fillColor=none;strokeColor=none;rounded=0;sketch=0;fontColor=#393C56;fontSize=10;" vertex="1" parent="1">
          <mxGeometry x="615" y="445" width="310" height="30" as="geometry" />
        </mxCell>
        <mxCell id="fEuwy3rYI2_3SgZEsgPA-5" value="返回数组元素内存大小" style="text;html=1;resizable=0;autosize=1;align=center;verticalAlign=middle;points=[];fillColor=none;strokeColor=none;rounded=0;sketch=0;fontColor=#393C56;fontSize=10;" vertex="1" parent="1">
          <mxGeometry x="170" y="225" width="120" height="30" as="geometry" />
        </mxCell>
        <mxCell id="fEuwy3rYI2_3SgZEsgPA-6" value="禁止load、store重排序" style="text;html=1;resizable=0;autosize=1;align=center;verticalAlign=middle;points=[];fillColor=none;strokeColor=none;rounded=0;sketch=0;fontColor=#393C56;fontSize=10;" vertex="1" parent="1">
          <mxGeometry x="170" y="276" width="120" height="30" as="geometry" />
        </mxCell>
        <mxCell id="fEuwy3rYI2_3SgZEsgPA-7" value="返回系统指针大小" style="text;html=1;resizable=0;autosize=1;align=center;verticalAlign=middle;points=[];fillColor=none;strokeColor=none;rounded=0;sketch=0;fontColor=#393C56;fontSize=10;" vertex="1" parent="1">
          <mxGeometry x="190" y="315" width="100" height="30" as="geometry" />
        </mxCell>
        <mxCell id="fEuwy3rYI2_3SgZEsgPA-8" value="返回内存页大小" style="text;html=1;resizable=0;autosize=1;align=center;verticalAlign=middle;points=[];fillColor=none;strokeColor=none;rounded=0;sketch=0;fontColor=#393C56;fontSize=10;" vertex="1" parent="1">
          <mxGeometry x="200" y="345" width="90" height="30" as="geometry" />
        </mxCell>
        <mxCell id="fEuwy3rYI2_3SgZEsgPA-9" value="线程挂起、恢复" style="text;html=1;resizable=0;autosize=1;align=center;verticalAlign=middle;points=[];fillColor=none;strokeColor=none;rounded=0;sketch=0;fontColor=#393C56;fontSize=10;" vertex="1" parent="1">
          <mxGeometry x="200" y="375" width="90" height="30" as="geometry" />
        </mxCell>
        <mxCell id="fEuwy3rYI2_3SgZEsgPA-10" value="获取、释放锁" style="text;html=1;resizable=0;autosize=1;align=center;verticalAlign=middle;points=[];fillColor=none;strokeColor=none;rounded=0;sketch=0;fontColor=#393C56;fontSize=10;" vertex="1" parent="1">
          <mxGeometry x="205" y="405" width="80" height="30" as="geometry" />
        </mxCell>
        <mxCell id="fEuwy3rYI2_3SgZEsgPA-11" value="返回数组首元素偏移地址" style="text;html=1;resizable=0;autosize=1;align=center;verticalAlign=middle;points=[];fillColor=none;strokeColor=none;rounded=0;sketch=0;fontColor=#393C56;fontSize=10;" vertex="1" parent="1">
          <mxGeometry x="160" y="195" width="130" height="30" as="geometry" />
        </mxCell>
      </root>
    </mxGraphModel>
  </diagram>
</mxfile>
